# xmcd CD database file
#
# Track frame offsets:
#	150
#	31333
#	49014
#	64740
#	78320
#	98748
#	115122
#	127309
#	142973
#	158399
#	167076
#	193395
#	210723
#	230956
#	247177
#	262342
#
# Disc length: 3661 seconds
#
# Revision: 7
# Processed by: cddbd v1.4PL0 Copyright (c) Steve Scherf et al.
# Submitted via: jetAudio 5
#
DISCID=ed0e4b10
DTITLE=Various Artist - Supreme Nocturnal Destruction
DYEAR=1900
DGENRE=
TTITLE0=Shame
TTITLE1=Addiction
TTITLE2=Shoulders of Geniusses
TTITLE3=Slave Device
TTITLE4=Forbidden
TTITLE5=Re-Creation
TTITLE6=Out of the Darkness
TTITLE7=Bloodstained
TTITLE8=Misinterpreted Souls
TTITLE9=CIAO 3001
TTITLE10=Dust Alone
TTITLE11=Return to the Human World
TTITLE12=In the Darkness Clawing
TTITLE13=Brr, Brr
TTITLE14=Reason to Live
TTITLE15=Closer
EXTD=
EXTT0=
EXTT1=
EXTT2=
EXTT3=
EXTT4=
EXTT5=
EXTT6=
EXTT7=
EXTT8=
EXTT9=
EXTT10=
EXTT11=
EXTT12=
EXTT13=
EXTT14=
EXTT15=
PLAYORDER=
